<svg width="252" height="39" viewBox="0 0 252 39" fill="none" xmlns="http://www.w3.org/2000/svg">
<path d="M5.60938 20.9062L20.5156 26.2969V32.6484L0.265625 24.0703V19.5703L5.60938 20.9062ZM20.5156 16.5L5.58594 21.9844L0.265625 23.25V18.75L20.5156 10.1719V16.5ZM199.766 32.7422C199.766 31.7422 200.109 30.9062 200.797 30.2344C201.5 29.5625 202.43 29.2266 203.586 29.2266C204.742 29.2266 205.664 29.5625 206.352 30.2344C207.055 30.9062 207.406 31.7422 207.406 32.7422C207.406 33.7422 207.055 34.5781 206.352 35.25C205.664 35.9219 204.742 36.2578 203.586 36.2578C202.43 36.2578 201.5 35.9219 200.797 35.25C200.109 34.5781 199.766 33.7422 199.766 32.7422ZM227.938 1.875L215.422 38.9297H210.406L222.922 1.875H227.938ZM246.359 21.8438L231.336 16.4766V10.1719L251.75 18.75V23.2734L246.359 21.8438ZM231.336 26.3438L246.383 20.8594L251.75 19.5703V24.0703L231.336 32.6484V26.3438Z" fill="#FFBB00"/>
<path d="M33.5469 1.875V36H26.5156V1.875H33.5469ZM47.1406 16.4531V21.9375H31.625V16.4531H47.1406ZM48.7812 1.875V7.38281H31.625V1.875H48.7812ZM65.3281 30.2812V18.9844C65.3281 18.1719 65.1953 17.4766 64.9297 16.8984C64.6641 16.3047 64.25 15.8438 63.6875 15.5156C63.1406 15.1875 62.4297 15.0234 61.5547 15.0234C60.8047 15.0234 60.1562 15.1562 59.6094 15.4219C59.0625 15.6719 58.6406 16.0391 58.3438 16.5234C58.0469 16.9922 57.8984 17.5469 57.8984 18.1875H51.1484C51.1484 17.1094 51.3984 16.0859 51.8984 15.1172C52.3984 14.1484 53.125 13.2969 54.0781 12.5625C55.0312 11.8125 56.1641 11.2266 57.4766 10.8047C58.8047 10.3828 60.2891 10.1719 61.9297 10.1719C63.8984 10.1719 65.6484 10.5 67.1797 11.1562C68.7109 11.8125 69.9141 12.7969 70.7891 14.1094C71.6797 15.4219 72.125 17.0625 72.125 19.0312V29.8828C72.125 31.2734 72.2109 32.4141 72.3828 33.3047C72.5547 34.1797 72.8047 34.9453 73.1328 35.6016V36H66.3125C65.9844 35.3125 65.7344 34.4531 65.5625 33.4219C65.4062 32.375 65.3281 31.3281 65.3281 30.2812ZM66.2188 20.5547L66.2656 24.375H62.4922C61.6016 24.375 60.8281 24.4766 60.1719 24.6797C59.5156 24.8828 58.9766 25.1719 58.5547 25.5469C58.1328 25.9062 57.8203 26.3281 57.6172 26.8125C57.4297 27.2969 57.3359 27.8281 57.3359 28.4062C57.3359 28.9844 57.4688 29.5078 57.7344 29.9766C58 30.4297 58.3828 30.7891 58.8828 31.0547C59.3828 31.3047 59.9688 31.4297 60.6406 31.4297C61.6562 31.4297 62.5391 31.2266 63.2891 30.8203C64.0391 30.4141 64.6172 29.9141 65.0234 29.3203C65.4453 28.7266 65.6641 28.1641 65.6797 27.6328L67.4609 30.4922C67.2109 31.1328 66.8672 31.7969 66.4297 32.4844C66.0078 33.1719 65.4688 33.8203 64.8125 34.4297C64.1562 35.0234 63.3672 35.5156 62.4453 35.9062C61.5234 36.2812 60.4297 36.4688 59.1641 36.4688C57.5547 36.4688 56.0938 36.1484 54.7812 35.5078C53.4844 34.8516 52.4531 33.9531 51.6875 32.8125C50.9375 31.6562 50.5625 30.3438 50.5625 28.875C50.5625 27.5469 50.8125 26.3672 51.3125 25.3359C51.8125 24.3047 52.5469 23.4375 53.5156 22.7344C54.5 22.0156 55.7266 21.4766 57.1953 21.1172C58.6641 20.7422 60.3672 20.5547 62.3047 20.5547H66.2188ZM77.3281 0H84.0781V30.1875L83.3984 36H77.3281V0ZM100.133 23.0625V23.5547C100.133 25.4453 99.9297 27.1797 99.5234 28.7578C99.1328 30.3359 98.5234 31.7031 97.6953 32.8594C96.8672 34 95.8359 34.8906 94.6016 35.5312C93.3828 36.1562 91.9453 36.4688 90.2891 36.4688C88.7422 36.4688 87.3984 36.1562 86.2578 35.5312C85.1328 34.9062 84.1875 34.0234 83.4219 32.8828C82.6562 31.7422 82.0391 30.4062 81.5703 28.875C81.1016 27.3438 80.75 25.6719 80.5156 23.8594V22.7812C80.75 20.9688 81.1016 19.2969 81.5703 17.7656C82.0391 16.2344 82.6562 14.8984 83.4219 13.7578C84.1875 12.6172 85.1328 11.7344 86.2578 11.1094C87.3828 10.4844 88.7109 10.1719 90.2422 10.1719C91.9141 10.1719 93.3672 10.4922 94.6016 11.1328C95.8516 11.7578 96.8828 12.6484 97.6953 13.8047C98.5234 14.9453 99.1328 16.3047 99.5234 17.8828C99.9297 19.4453 100.133 21.1719 100.133 23.0625ZM93.3828 23.5547V23.0625C93.3828 22.0312 93.3047 21.0625 93.1484 20.1562C93.0078 19.2344 92.7578 18.4297 92.3984 17.7422C92.0391 17.0391 91.5469 16.4844 90.9219 16.0781C90.3125 15.6719 89.5234 15.4688 88.5547 15.4688C87.6328 15.4688 86.8516 15.625 86.2109 15.9375C85.5703 16.25 85.0391 16.6875 84.6172 17.25C84.2109 17.8125 83.9062 18.4844 83.7031 19.2656C83.5 20.0312 83.375 20.875 83.3281 21.7969V24.8672C83.375 26.1016 83.5781 27.1953 83.9375 28.1484C84.3125 29.0859 84.875 29.8281 85.625 30.375C86.3906 30.9062 87.3828 31.1719 88.6016 31.1719C89.5547 31.1719 90.3438 30.9844 90.9688 30.6094C91.5938 30.2344 92.0781 29.7031 92.4219 29.0156C92.7812 28.3281 93.0312 27.5234 93.1719 26.6016C93.3125 25.6641 93.3828 24.6484 93.3828 23.5547ZM111.078 16.1719V36H104.328V10.6406H110.68L111.078 16.1719ZM118.719 10.4766L118.602 16.7344C118.273 16.6875 117.875 16.6484 117.406 16.6172C116.953 16.5703 116.539 16.5469 116.164 16.5469C115.211 16.5469 114.383 16.6719 113.68 16.9219C112.992 17.1562 112.414 17.5078 111.945 17.9766C111.492 18.4453 111.148 19.0156 110.914 19.6875C110.695 20.3594 110.57 21.125 110.539 21.9844L109.18 21.5625C109.18 19.9219 109.344 18.4141 109.672 17.0391C110 15.6484 110.477 14.4375 111.102 13.4062C111.742 12.375 112.523 11.5781 113.445 11.0156C114.367 10.4531 115.422 10.1719 116.609 10.1719C116.984 10.1719 117.367 10.2031 117.758 10.2656C118.148 10.3125 118.469 10.3828 118.719 10.4766ZM129.031 10.6406V36H122.258V10.6406H129.031ZM121.836 4.03125C121.836 3.04688 122.18 2.23437 122.867 1.59375C123.555 0.953125 124.477 0.632812 125.633 0.632812C126.773 0.632812 127.688 0.953125 128.375 1.59375C129.078 2.23437 129.43 3.04688 129.43 4.03125C129.43 5.01562 129.078 5.82813 128.375 6.46875C127.688 7.10938 126.773 7.42969 125.633 7.42969C124.477 7.42969 123.555 7.10938 122.867 6.46875C122.18 5.82813 121.836 5.01562 121.836 4.03125ZM145.086 31.1953C145.914 31.1953 146.648 31.0391 147.289 30.7266C147.93 30.3984 148.43 29.9453 148.789 29.3672C149.164 28.7734 149.359 28.0781 149.375 27.2812H155.727C155.711 29.0625 155.234 30.6484 154.297 32.0391C153.359 33.4141 152.102 34.5 150.523 35.2969C148.945 36.0781 147.18 36.4688 145.227 36.4688C143.258 36.4688 141.539 36.1406 140.07 35.4844C138.617 34.8281 137.406 33.9219 136.438 32.7656C135.469 31.5938 134.742 30.2344 134.258 28.6875C133.773 27.125 133.531 25.4531 133.531 23.6719V22.9922C133.531 21.1953 133.773 19.5234 134.258 17.9766C134.742 16.4141 135.469 15.0547 136.438 13.8984C137.406 12.7266 138.617 11.8125 140.07 11.1562C141.523 10.5 143.227 10.1719 145.18 10.1719C147.258 10.1719 149.078 10.5703 150.641 11.3672C152.219 12.1641 153.453 13.3047 154.344 14.7891C155.25 16.2578 155.711 18 155.727 20.0156H149.375C149.359 19.1719 149.18 18.4062 148.836 17.7188C148.508 17.0312 148.023 16.4844 147.383 16.0781C146.758 15.6562 145.984 15.4453 145.062 15.4453C144.078 15.4453 143.273 15.6562 142.648 16.0781C142.023 16.4844 141.539 17.0469 141.195 17.7656C140.852 18.4688 140.609 19.2734 140.469 20.1797C140.344 21.0703 140.281 22.0078 140.281 22.9922V23.6719C140.281 24.6562 140.344 25.6016 140.469 26.5078C140.594 27.4141 140.828 28.2188 141.172 28.9219C141.531 29.625 142.023 30.1797 142.648 30.5859C143.273 30.9922 144.086 31.1953 145.086 31.1953ZM166.766 10.6406V36H159.992V10.6406H166.766ZM159.57 4.03125C159.57 3.04688 159.914 2.23437 160.602 1.59375C161.289 0.953125 162.211 0.632812 163.367 0.632812C164.508 0.632812 165.422 0.953125 166.109 1.59375C166.812 2.23437 167.164 3.04688 167.164 4.03125C167.164 5.01562 166.812 5.82813 166.109 6.46875C165.422 7.10938 164.508 7.42969 163.367 7.42969C162.211 7.42969 161.289 7.10938 160.602 6.46875C159.914 5.82813 159.57 5.01562 159.57 4.03125ZM171.266 23.5781V23.0859C171.266 21.2266 171.531 19.5156 172.062 17.9531C172.594 16.375 173.367 15.0078 174.383 13.8516C175.398 12.6953 176.648 11.7969 178.133 11.1562C179.617 10.5 181.32 10.1719 183.242 10.1719C185.164 10.1719 186.875 10.5 188.375 11.1562C189.875 11.7969 191.133 12.6953 192.148 13.8516C193.18 15.0078 193.961 16.375 194.492 17.9531C195.023 19.5156 195.289 21.2266 195.289 23.0859V23.5781C195.289 25.4219 195.023 27.1328 194.492 28.7109C193.961 30.2734 193.18 31.6406 192.148 32.8125C191.133 33.9688 189.883 34.8672 188.398 35.5078C186.914 36.1484 185.211 36.4688 183.289 36.4688C181.367 36.4688 179.656 36.1484 178.156 35.5078C176.672 34.8672 175.414 33.9688 174.383 32.8125C173.367 31.6406 172.594 30.2734 172.062 28.7109C171.531 27.1328 171.266 25.4219 171.266 23.5781ZM178.016 23.0859V23.5781C178.016 24.6406 178.109 25.6328 178.297 26.5547C178.484 27.4766 178.781 28.2891 179.188 28.9922C179.609 29.6797 180.156 30.2188 180.828 30.6094C181.5 31 182.32 31.1953 183.289 31.1953C184.227 31.1953 185.031 31 185.703 30.6094C186.375 30.2188 186.914 29.6797 187.32 28.9922C187.727 28.2891 188.023 27.4766 188.211 26.5547C188.414 25.6328 188.516 24.6406 188.516 23.5781V23.0859C188.516 22.0547 188.414 21.0859 188.211 20.1797C188.023 19.2578 187.719 18.4453 187.297 17.7422C186.891 17.0234 186.352 16.4609 185.68 16.0547C185.008 15.6484 184.195 15.4453 183.242 15.4453C182.289 15.4453 181.477 15.6484 180.805 16.0547C180.148 16.4609 179.609 17.0234 179.188 17.7422C178.781 18.4453 178.484 19.2578 178.297 20.1797C178.109 21.0859 178.016 22.0547 178.016 23.0859Z" fill="white"/>
</svg>
